<svg width="259" height="156" viewBox="0 0 259 156" fill="none" xmlns="http://www.w3.org/2000/svg">
<g filter="url(#filter0_d_614_128)">
<path d="M22.6963 80.8635C19.4849 76.3703 20.5146 70.1084 25.1193 67.0591C55.0031 47.2697 88.4279 33.3688 123.597 26.1409C158.765 18.9129 194.963 18.5047 230.229 24.9042C235.664 25.8902 239.079 31.2385 237.9 36.634L224.753 96.801C223.574 102.197 218.247 105.589 212.799 104.682C188.69 100.669 164.018 101.125 140.021 106.057C116.025 110.989 93.1729 120.3 72.6001 133.496C67.9513 136.478 61.7184 135.462 58.507 130.969L22.6963 80.8635Z" fill="#CAF36B"/>
</g>
<defs>
<filter id="filter0_d_614_128" x="0.834717" y="0.393555" width="257.298" height="154.798" filterUnits="userSpaceOnUse" color-interpolation-filters="sRGB">
<feFlood flood-opacity="0" result="BackgroundImageFix"/>
<feColorMatrix in="SourceAlpha" type="matrix" values="0 0 0 0 0 0 0 0 0 0 0 0 0 0 0 0 0 0 127 0" result="hardAlpha"/>
<feOffset/>
<feGaussianBlur stdDeviation="10"/>
<feComposite in2="hardAlpha" operator="out"/>
<feColorMatrix type="matrix" values="0 0 0 0 0.792157 0 0 0 0 0.952941 0 0 0 0 0.419608 0 0 0 0.4 0"/>
<feBlend mode="normal" in2="BackgroundImageFix" result="effect1_dropShadow_614_128"/>
<feBlend mode="normal" in="SourceGraphic" in2="effect1_dropShadow_614_128" result="shape"/>
</filter>
</defs>
</svg>
