<svg width="182" height="115" viewBox="0 0 182 115" fill="none" xmlns="http://www.w3.org/2000/svg">
<g clip-path="url(#clip0_508_131)">
<path d="M0.445312 0.0214844L33.3156 8.6597L43.7161 90.1535L47.8628 114.109H26.1179C26.1179 114.109 15.7342 111.916 12.1438 91.6602C8.55332 71.4039 0.445312 0.0214844 0.445312 0.0214844Z" fill="#ECD09D"/>
<path d="M181.603 0.0214844L148.733 8.6597L138.349 90.1535L134.185 114.109H155.913C155.913 114.109 166.297 111.916 169.888 91.6602C173.478 71.4039 181.603 0.0214844 181.603 0.0214844Z" fill="#C8A554"/>
<path d="M108.075 30.7239H72.7938C72.7938 30.7239 61.6516 29.8869 55.4146 53.3239C49.7171 74.819 42.3845 114.026 26.1179 114.026H57.6903C57.6903 114.026 70.7204 115.03 79.6038 90.8231C88.4872 66.6161 84.6608 38.8599 108.075 30.7239Z" fill="#C8A554"/>
<path d="M72.7937 30.7241H107.181C107.181 30.7241 121.054 31.2263 125.032 53.1232C129.752 79.1048 140.203 114.026 156.487 114.026H124.931C124.931 114.026 111.901 115.03 103.018 90.8233C94.1341 66.6162 92.3473 31.829 72.7937 30.7241Z" fill="#ECD09D"/>
</g>
<defs>
<clipPath id="clip0_508_131">
<rect width="181.158" height="114.004" fill="white" transform="translate(0.445312 0.0214844)"/>
</clipPath>
</defs>
</svg>
