<svg width="47" height="59" viewBox="0 0 47 59" fill="none" xmlns="http://www.w3.org/2000/svg">
<path d="M45.1591 0.907227H1.29153C0.76703 0.907227 0.337891 1.33637 0.337891 1.86087V32.2586C0.349812 39.6732 4.6889 46.3845 11.4481 49.4362L14.9051 50.9978C18.0282 52.4044 20.6508 54.7288 22.415 57.6733C22.6892 58.1262 23.2733 58.2693 23.7262 57.9951C23.8573 57.9117 23.9765 57.8044 24.0481 57.6733C25.8124 54.7288 28.4229 52.4044 31.558 50.9978L35.015 49.4362C41.7739 46.3845 46.1132 39.6733 46.1252 32.2586V1.86087C46.1132 1.33637 45.6841 0.907227 45.1596 0.907227H45.1591ZM26.6944 29.5165H19.7685L17.6824 22.9721L23.2374 19.2172L28.8639 22.9364L26.6944 29.5165ZM23.2255 13.0179L19.5302 9.94242C21.95 9.33447 24.4891 9.33447 26.909 9.94242L23.2255 13.0179ZM23.2255 7.58218C22.2719 7.58218 21.3064 7.66562 20.3646 7.82059V2.81391H26.0865V7.82059C25.1447 7.66562 24.1792 7.58218 23.2255 7.58218ZM18.4573 8.26165C16.7646 8.7504 15.1553 9.50139 13.6891 10.4908V2.8139H18.4573V8.26165ZM17.3964 10.6458L22.2718 14.6988V17.5597L16.407 21.5293L13.6533 20.6352L11.4242 15.0922C13.0215 13.1372 15.0719 11.6114 17.3964 10.6459V10.6458ZM10.113 16.9517L11.746 21.0166L8.0387 23.3531C8.24135 21.0882 8.94466 18.9067 10.1128 16.9518L10.113 16.9517ZM13.0574 22.4471L15.7991 23.3411L18.0163 30.3027L16.3116 32.6392L10.4109 33.0325C8.96858 30.8153 8.13406 28.2762 7.99107 25.6419L13.0574 22.4471ZM16.0971 34.5578L17.1581 38.7419C15.1078 37.8479 13.2839 36.5128 11.8058 34.8439L16.0971 34.5578ZM19.3157 39.4928L17.8613 33.7591L19.554 31.4226H26.8971L28.5421 33.6995L27.0759 39.5167C24.5249 40.1723 21.8547 40.1723 19.3157 39.4929V39.4928ZM30.306 34.51L34.6927 34.808C33.1908 36.5246 31.3192 37.8836 29.2212 38.7895L30.306 34.51ZM36.0636 32.9723L30.0795 32.5789L28.4344 30.3021L30.7351 23.3047L33.4649 22.4107L38.4596 25.5577C38.3284 28.2041 37.494 30.7551 36.0636 32.9723V32.9723ZM34.7881 20.9924L36.3735 17.0228C37.506 18.9301 38.1973 21.0759 38.4119 23.2811L34.7881 20.9924ZM32.8808 20.6109L30.1271 21.505L24.1788 17.5593V14.6984L29.0543 10.6453C31.4026 11.6228 33.4768 13.1606 35.0741 15.1393L32.8808 20.6109ZM27.9934 8.26154V2.8139H32.7616V10.4788C31.2954 9.5013 29.6861 8.75035 27.9934 8.26154ZM44.2053 32.2574C44.1934 38.921 40.2954 44.9523 34.2278 47.6944L30.7708 49.256C27.7549 50.6029 25.1443 52.7368 23.2252 55.4308C21.306 52.7367 18.7073 50.6029 15.6795 49.256L12.2225 47.6944C6.15496 44.9527 2.24502 38.9209 2.24502 32.2574V2.81325H4.15231V17.1179H6.05959V2.81325H11.7814V11.9682C8.13374 15.2106 6.05959 19.8596 6.05959 24.747C6.05959 34.212 13.7602 41.9126 23.2252 41.9126C32.6901 41.9126 40.3907 34.212 40.3907 24.747C40.3907 19.8596 38.3166 15.2106 34.6689 11.9682V2.81325H40.3907V17.1179H42.298V2.81325H44.2053V32.2574Z" fill="#C9A555"/>
<path d="M12.7354 43.8213H14.6426V45.7286H12.7354V43.8213Z" fill="#C9A555"/>
<path d="M17.5034 43.8213H19.4107V45.7286H17.5034V43.8213Z" fill="#C9A555"/>
<path d="M22.2715 43.8213H24.1788V45.7286H22.2715V43.8213Z" fill="#C9A555"/>
<path d="M27.04 43.8213H28.9473V45.7286H27.04V43.8213Z" fill="#C9A555"/>
<path d="M31.8081 43.8213H33.7154V45.7286H31.8081V43.8213Z" fill="#C9A555"/>
<path d="M5.58265 32.0196L3.81836 32.7348C4.90312 35.3573 6.50044 37.7415 8.53883 39.7321L9.87393 38.3732C8.02626 36.5613 6.57193 34.4036 5.58254 32.0195L5.58265 32.0196Z" fill="#C9A555"/>
<path d="M9.63574 40.7334C10.1483 41.1744 10.6847 41.5797 11.2331 41.9731L12.3297 40.4115C11.829 40.0658 11.3403 39.6844 10.8754 39.291L9.63574 40.7334Z" fill="#C9A555"/>
<path d="M34.1207 40.4001L35.2174 41.9617C35.7657 41.5802 36.3021 41.163 36.8147 40.7219L35.5749 39.2676C35.11 39.6729 34.6213 40.0543 34.1206 40.4001H34.1207Z" fill="#C9A555"/>
<path d="M36.5763 38.3741L37.9114 39.7331C39.9498 37.7423 41.5471 35.3702 42.6319 32.7357L40.8676 32.0205C39.8782 34.4046 38.4238 36.5622 36.5762 38.3742L36.5763 38.3741Z" fill="#C9A555"/>
</svg>
